<?xml version="1.0" encoding="UTF-8" standalone="no"?>
<!-- Created with Inkscape (http://www.inkscape.org/) -->

<svg
   width="210mm"
   height="297mm"
   viewBox="0 0 210 297"
   version="1.1"
   id="svg5"
   inkscape:version="1.2.1 (9c6d41e410, 2022-07-14)"
   sodipodi:docname="Logoer.svg"
   xml:space="preserve"
   xmlns:inkscape="http://www.inkscape.org/namespaces/inkscape"
   xmlns:sodipodi="http://sodipodi.sourceforge.net/DTD/sodipodi-0.dtd"
   xmlns="http://www.w3.org/2000/svg"
   xmlns:svg="http://www.w3.org/2000/svg"><sodipodi:namedview
     id="namedview7"
     pagecolor="#ffffff"
     bordercolor="#000000"
     borderopacity="0.25"
     inkscape:showpageshadow="2"
     inkscape:pageopacity="0.0"
     inkscape:pagecheckerboard="0"
     inkscape:deskcolor="#d1d1d1"
     inkscape:document-units="mm"
     showgrid="false"
     showguides="false"
     inkscape:zoom="1.0582793"
     inkscape:cx="28.820368"
     inkscape:cy="258.43838"
     inkscape:window-width="1920"
     inkscape:window-height="1001"
     inkscape:window-x="-9"
     inkscape:window-y="-9"
     inkscape:window-maximized="1"
     inkscape:current-layer="layer1" /><defs
     id="defs2" /><g
     inkscape:label="Layer 1"
     inkscape:groupmode="layer"
     id="layer1"><g
       id="g3595"><g
         id="g15810"
         transform="translate(-5.2502672,-20.751061)"
         style="stroke:#fed700;stroke-opacity:1"><g
           id="g13653"
           style="stroke:#fed700;stroke-opacity:1"><ellipse
             style="fill:none;fill-opacity:1;stroke:#fed700;stroke-width:1.1019;stroke-dasharray:none;stroke-opacity:1"
             id="path12087"
             cx="134.25685"
             cy="72.253685"
             rx="28.926376"
             ry="28.926003" /><ellipse
             style="fill:none;fill-opacity:1;stroke:#fed700;stroke-width:1.1019;stroke-dasharray:none;stroke-opacity:1"
             id="ellipse13649"
             cx="134.25685"
             cy="72.253685"
             rx="31.627209"
             ry="31.902325" /></g><rect
           style="fill:#ffffff;fill-opacity:1;stroke:#fed700;stroke-width:1.10387;stroke-dasharray:none;stroke-opacity:1"
           id="rect14400"
           width="74.02491"
           height="13.646832"
           x="97.2444"
           y="65.430267"
           ry="2.5494082" /><text
           xml:space="preserve"
           style="font-style:normal;font-variant:normal;font-weight:normal;font-stretch:normal;font-size:12.7px;font-family:'DejaVu Sans';-inkscape-font-specification:'DejaVu Sans';text-align:center;text-anchor:middle;fill:#fed700;fill-opacity:1;stroke:#fed700;stroke-width:1;stroke-dasharray:none;stroke-opacity:1"
           x="134.58241"
           y="76.876656"
           id="text13709"><tspan
             sodipodi:role="line"
             id="tspan13707"
             style="font-style:normal;font-variant:normal;font-weight:normal;font-stretch:normal;font-family:'DejaVu Sans';-inkscape-font-specification:'DejaVu Sans';fill:#fed700;fill-opacity:1;stroke:#fed700;stroke-width:1;stroke-opacity:1"
             x="134.58241"
             y="76.876656">APPROVED</tspan></text></g><g
         id="g16122"
         style="fill:#fed700;fill-opacity:1;stroke:#fed700;stroke-opacity:1"><text
           xml:space="preserve"
           style="font-style:normal;font-variant:normal;font-weight:normal;font-stretch:normal;font-size:3.44128px;font-family:'DejaVu Sans';-inkscape-font-specification:'DejaVu Sans';text-align:center;text-anchor:middle;fill:#fed700;fill-opacity:1;stroke:#fed700;stroke-width:0.270967;stroke-dasharray:none;stroke-opacity:1"
           x="129.00659"
           y="67.490524"
           id="text15912"><tspan
             sodipodi:role="line"
             id="tspan15910"
             style="fill:#fed700;fill-opacity:1;stroke:#fed700;stroke-width:0.270967;stroke-opacity:1"
             x="129.00659"
             y="67.490524">(Potensielt)</tspan></text><text
           xml:space="preserve"
           style="font-style:normal;font-variant:normal;font-weight:normal;font-stretch:normal;font-size:6.11353px;font-family:'DejaVu Sans';-inkscape-font-specification:'DejaVu Sans';text-align:center;text-anchor:middle;fill:#fed700;fill-opacity:1;stroke:#fed700;stroke-width:0.48138;stroke-dasharray:none;stroke-opacity:1"
           x="128.98419"
           y="38.104504"
           id="text16104"><tspan
             sodipodi:role="line"
             id="tspan16102"
             style="fill:#fed700;fill-opacity:1;stroke:#fed700;stroke-width:0.48138;stroke-opacity:1"
             x="128.98419"
             y="38.104504">Ma &amp; Pa</tspan></text></g></g><g
       id="g19512"
       transform="matrix(1.8458859,0,0,1.8458859,-235.29654,-268.39968)"
       style="stroke:#fed700;stroke-opacity:1"><path
         id="path18500"
         style="fill:none;stroke:#fe4900;stroke-width:1.27922;stroke-opacity:1"
         d="m 159.47731,219.91747 a 10.219702,13.517337 0 0 1 -10.2197,13.51734 10.219702,13.517337 0 0 1 -10.2197,-13.51734 10.219702,13.517337 0 0 1 10.2197,-13.51733 10.219702,13.517337 0 0 1 10.2197,13.51733 z m -11.96978,6.8441 c 2.12511,0.40238 4.25021,-0.0287 6.37532,-0.43753 m -4.56273,-9.813 2.18761,3.50018 -2.68764,0.81254 m 3.06266,-5.06275 h 3.37517 m -3.8752,-1.8126 3.31267,-1.06255 1.9376,1.31257 m -15.6883,2.62513 2.06261,-2.0626 3.8752,-0.56253 m -4.18772,3.43767 4.25022,-1.25006" /><text
         xml:space="preserve"
         style="font-style:normal;font-variant:normal;font-weight:normal;font-stretch:normal;font-size:11.4619px;font-family:'DejaVu Sans';-inkscape-font-specification:'DejaVu Sans';text-align:center;text-anchor:middle;fill:#fe4900;fill-opacity:1;stroke:#fe4900;stroke-width:0.902513;stroke-dasharray:none;stroke-opacity:1"
         x="149.02815"
         y="245.43626"
         id="text18558"><tspan
           sodipodi:role="line"
           id="tspan18556"
           style="fill:#fe4900;fill-opacity:1;stroke-width:0.902513"
           x="149.02815"
           y="245.43626">NMF</tspan></text></g><path
       style="fill:#fe4900;stroke:#fe4900;stroke-width:0.574896"
       d="M 47.623008,97.015934 H 9.1769833"
       id="path571" /><g
       id="g4416"><g
         id="g4380"><path
           style="fill:#0047f8;fill-opacity:1;stroke:#0047f8;stroke-width:7.99999;stroke-dasharray:none;stroke-opacity:1"
           d="M 35.15163,52.050045 48.906963,43.757532"
           id="path9016"
           sodipodi:nodetypes="cc" /><path
           id="path234"
           style="color:#000000;fill:#0047f8"
           d="m 28.59102,50.867696 c -7.959737,6.099204 -11.719154,16.381772 -9.403561,26.280567 2.494033,10.661601 11.500124,18.598626 22.390882,19.730578 10.890756,1.13195 21.337205,-4.782172 25.970507,-14.702978 2.118003,-4.535056 2.813263,-9.464528 2.194182,-14.208435 L 59.30439,61.940922 c 3.111912,5.00537 3.574651,11.327365 0.996322,16.848067 C 57.097669,85.64733 49.933007,89.70268 42.40413,88.920154 34.875254,88.137626 28.700794,82.696609 26.976648,75.326152 25.456834,68.829187 27.703077,62.142907 32.640385,57.881222 Z m 33.561259,1.954403 -5.12992,5.288049 7.2285,-2.988965 c -0.646908,-0.800973 -1.346521,-1.569421 -2.09858,-2.299084 z" /><circle
           style="fill:#0047f8;fill-opacity:1;stroke:#0047f8;stroke-width:7.99999;stroke-dasharray:none;stroke-opacity:1"
           id="path8329"
           cx="4.4171848"
           cy="36.85593"
           r="7.5003824"
           transform="rotate(-30)" /><path
           style="fill:none;fill-opacity:0.972549;stroke:#0047f8;stroke-width:7.99999;stroke-dasharray:none;stroke-opacity:1"
           d="m 20.753283,27.111374 14.765993,25.57545 6.235075,10.799466 15.589247,-9.000456 28.262183,16.317176 3.680478,-6.374765"
           id="path8327"
           sodipodi:nodetypes="cccccc" /></g><path
         style="fill:#fe4900;stroke:none;stroke-width:1"
         d="m 41.030529,96.662364 c 0.555544,-3.026541 -13.164302,-11.464174 -24.75,-19.092857 4.61812,6.405973 10.824605,10.958853 13.658497,19.446425 l -1.37507,2e-6 C 23.635514,88.992322 21.694564,86.943692 18.938466,83.264766 l 4.576426,13.662178 c -1.446772,-1.174253 -2.560603,-3.618995 -4.45142,-4.349202 -0.731131,1.166882 -0.199352,3.271311 -0.187509,4.438192 -0.640554,-0.881878 -1.31323,-1.895546 -2.500128,-2.25058 -0.950399,3.050505 -0.601967,1.704413 -0.812541,2.25058 z"
         id="path573"
         sodipodi:nodetypes="ccccccccccc" /><rect
         style="fill:#0a9a00;fill-opacity:1;stroke:none;stroke-width:0.834805"
         id="rect2007"
         width="5.0090833"
         height="14.976996"
         x="46.747963"
         y="34.696594"
         ry="1.1802686" /><g
         id="g4386"><path
           style="fill:none;fill-opacity:1;stroke:#353535;stroke-width:1;stroke-opacity:1"
           d="M 23.460982,46.52823 H 4.95"
           id="path2382" /><path
           style="fill:none;fill-opacity:1;stroke:#353535;stroke-width:1;stroke-opacity:1"
           d="M 19.660089,51.743409 H 1.1491071"
           id="path2384" /><path
           style="fill:none;fill-opacity:1;stroke:#353535;stroke-width:1;stroke-opacity:1"
           d="M 17.008303,56.958587 H -1.5026786"
           id="path2386" /><path
           style="fill:none;fill-opacity:1;stroke:#353535;stroke-width:1;stroke-opacity:1"
           d="M 14.356517,62.173766 H -4.1544643"
           id="path2388" /></g></g></g></svg>
